<svg width="33" height="28" viewBox="0 0 33 28" fill="none" xmlns="http://www.w3.org/2000/svg">
<path d="M23.1356 19.6979C24.5983 18.9459 24.4088 16.048 22.7136 13.2207C21.9864 12.0033 21.0924 11.0175 20.1983 10.3284C19.1292 11.0622 17.8341 11.4602 16.5028 11.4641C15.1694 11.4614 13.8721 11.0633 12.8013 10.3284C11.9073 11.0175 11.0156 12.0044 10.286 13.2207C8.58968 16.0469 8.40252 18.9459 9.8688 19.6979C10.5221 20.0419 11.2111 19.7839 11.9216 19.151C11.7885 19.8329 11.7219 20.5245 11.7225 21.2174C11.7225 24.4571 13.0815 27.0749 14.754 27.0749C15.7625 27.0749 16.262 26.121 16.5016 24.6622C16.74 26.1111 17.2407 27.0749 18.2421 27.0749C19.9074 27.0749 21.2771 24.456 21.2771 21.2174C21.2771 20.4896 21.2032 19.7949 21.0769 19.1521C21.7921 19.7861 22.4788 20.0485 23.1344 19.7001L23.1356 19.6979ZM16.5004 10.3614C17.1768 10.3708 17.8484 10.2556 18.4762 10.0226C19.1039 9.78959 19.6753 9.44341 20.1571 9.00422C20.6389 8.56502 21.0214 8.04157 21.2825 7.46434C21.5435 6.8871 21.6778 6.26761 21.6776 5.64191C21.6773 5.01622 21.5425 4.39681 21.2811 3.81975C21.0196 3.24268 20.6367 2.71948 20.1546 2.2806C19.6725 1.84171 19.1008 1.49591 18.4728 1.26331C17.8449 1.03071 17.1732 0.915966 16.4968 0.925748C15.1576 0.945116 13.8804 1.45092 12.9409 2.33393C12.0015 3.21694 11.4751 4.40632 11.4756 5.64522C11.4761 6.88413 12.0033 8.07316 12.9434 8.95556C13.8836 9.83797 15.1612 10.3429 16.5004 10.3614ZM26.7453 13.3541C27.8346 13.3247 28.8687 12.9037 29.6279 12.1806C30.3872 11.4574 30.8119 10.489 30.8119 9.48094C30.8119 8.47287 30.3872 7.50449 29.6279 6.78134C28.8687 6.05819 27.8346 5.63721 26.7453 5.60776C25.6344 5.6079 24.5692 6.01623 23.7838 6.7429C22.9984 7.46957 22.5573 8.45507 22.5574 9.4826C22.5576 10.5101 22.999 11.4955 23.7846 12.222C24.5702 12.9484 25.6356 13.3565 26.7465 13.3563L26.7453 13.3541ZM31.8474 15.7029C31.249 14.7016 30.5171 13.8922 29.7827 13.3266C28.9043 13.9286 27.8409 14.2551 26.7477 14.2583C25.8464 14.2583 25.0072 14.0301 24.2729 13.6519C24.8641 14.8571 25.2301 16.0778 25.2981 17.1694C25.4101 18.8411 24.8451 20.0805 23.715 20.6594C23.4729 20.7829 23.2095 20.8665 22.9365 20.9064C22.8686 21.3387 22.8221 21.7886 22.8221 22.2627C22.8221 24.9235 23.9367 27.0727 25.3112 27.0727C26.1385 27.0727 26.551 26.2898 26.7465 25.0922C26.9408 26.2831 27.352 27.0727 28.177 27.0727C29.5419 27.0727 30.6685 24.9224 30.6685 22.2649C30.6685 21.6662 30.6053 21.0961 30.5016 20.5668C31.0881 21.0884 31.6531 21.3034 32.1919 21.0167C33.3924 20.3992 33.2374 18.0196 31.8462 15.7018L31.8474 15.7029ZM6.25556 13.3541C7.08349 13.3537 7.8927 13.1262 8.58088 12.7004C9.26905 12.2746 9.80529 11.6696 10.1218 10.962C10.4383 10.2543 10.5209 9.4757 10.3591 8.72463C10.1973 7.97356 9.79834 7.28373 9.21273 6.74235C8.62712 6.20097 7.88113 5.83236 7.06907 5.68311C6.25701 5.53386 5.41534 5.61068 4.65047 5.90386C3.8856 6.19703 3.23188 6.6934 2.77195 7.3302C2.31202 7.96701 2.06654 8.71565 2.06654 9.4815C2.06686 10.5091 2.5083 11.4945 3.29382 12.2211C4.07935 12.9477 5.14466 13.356 6.25556 13.3563V13.3541ZM9.27752 20.6561C7.3797 19.6802 7.20566 16.7703 8.73392 13.6497C7.97856 14.0464 7.1254 14.2564 6.25675 14.2594C5.11711 14.2594 4.07283 13.9066 3.21691 13.3266C2.48377 13.8911 1.75302 14.7005 1.1522 15.7006C-0.23897 18.0207 -0.391558 20.4003 0.810073 21.0156C1.34652 21.3001 1.91276 21.0873 2.49569 20.5679C2.38963 21.1279 2.33579 21.6953 2.33476 22.2638C2.33476 24.9235 3.44937 27.0716 4.82385 27.0716C5.65117 27.0716 6.06363 26.2886 6.25913 25.0922C6.45583 26.2831 6.8671 27.0727 7.68965 27.0727C9.05698 27.0727 10.1811 24.9224 10.1811 22.2649C10.1811 21.7875 10.1334 21.3365 10.0655 20.9042C9.78947 20.8644 9.52316 20.7801 9.27871 20.655L9.27752 20.6561Z" fill="#6DD7FD"/>
</svg>
