<svg width="41" height="32" viewBox="0 0 41 32" fill="none" xmlns="http://www.w3.org/2000/svg">
<path d="M28.5432 22.9065C30.3161 21.995 30.0864 18.4824 28.0316 15.0554C27.1502 13.5798 26.0665 12.3849 24.9828 11.5495C23.6868 12.4391 22.1171 12.9215 20.5034 12.9262C18.8872 12.9229 17.3147 12.4404 16.0168 11.5495C14.9331 12.3849 13.8522 13.5812 12.9679 15.0554C10.9117 18.4811 10.6849 21.995 12.4622 22.9065C13.254 23.3236 14.0892 23.0108 14.9504 22.2436C14.7891 23.0702 14.7083 23.9084 14.7091 24.7484C14.7091 28.6753 16.3563 31.8483 18.3836 31.8483C19.6061 31.8483 20.2115 30.6922 20.5019 28.9239C20.7909 30.6802 21.3978 31.8483 22.6116 31.8483C24.6302 31.8483 26.2905 28.6739 26.2905 24.7484C26.2905 23.8662 26.2009 23.0242 26.0477 22.2449C26.9147 23.0135 27.747 23.3316 28.5417 22.9092L28.5432 22.9065ZM20.5005 11.5896C21.3203 11.601 22.1344 11.4613 22.8953 11.1789C23.6563 10.8965 24.3489 10.4769 24.9329 9.94452C25.5169 9.41216 25.9805 8.77767 26.2969 8.078C26.6133 7.37832 26.7761 6.62742 26.7758 5.869C26.7755 5.11058 26.6122 4.35978 26.2952 3.66031C25.9783 2.96084 25.5142 2.32666 24.9298 1.79468C24.3454 1.2627 23.6525 0.843539 22.8913 0.561601C22.1302 0.279664 21.316 0.140576 20.4962 0.152432C18.8729 0.175909 17.3247 0.789001 16.186 1.85932C15.0472 2.92964 14.4093 4.3713 14.4098 5.87301C14.4104 7.37471 15.0495 8.81596 16.189 9.88554C17.3286 10.9551 18.8772 11.5672 20.5005 11.5896ZM32.9185 15.2171C34.2389 15.1814 35.4923 14.6712 36.4126 13.7946C37.333 12.9181 37.8478 11.7443 37.8478 10.5224C37.8478 9.30046 37.333 8.12666 36.4126 7.25012C35.4923 6.37357 34.2389 5.86329 32.9185 5.82759C31.572 5.82777 30.2808 6.32271 29.3288 7.20353C28.3769 8.08434 27.8422 9.27889 27.8424 10.5244C27.8425 11.7699 28.3776 12.9643 29.3298 13.8448C30.2821 14.7254 31.5735 15.22 32.92 15.2198L32.9185 15.2171ZM39.1029 18.0641C38.3776 16.8505 37.4904 15.8694 36.6003 15.1837C35.5356 15.9134 34.2465 16.3092 32.9214 16.3131C31.829 16.3131 30.8118 16.0365 29.9217 15.578C30.6384 17.0389 31.082 18.5185 31.1643 19.8417C31.3001 21.868 30.6152 23.3703 29.2454 24.0721C28.952 24.2217 28.6328 24.323 28.3019 24.3714C28.2195 24.8954 28.1631 25.4407 28.1631 26.0155C28.1631 29.2406 29.5142 31.8457 31.1802 31.8457C32.183 31.8457 32.683 30.8967 32.92 29.4451C33.1555 30.8887 33.654 31.8457 34.6539 31.8457C36.3084 31.8457 37.6739 29.2393 37.6739 26.0181C37.6739 25.2924 37.5973 24.6013 37.4716 23.9598C38.1825 24.592 38.8674 24.8526 39.5205 24.5051C40.9756 23.7566 40.7878 20.8723 39.1015 18.0627L39.1029 18.0641ZM8.0825 15.2171C9.08605 15.2166 10.0669 14.9409 10.9011 14.4247C11.7352 13.9086 12.3852 13.1753 12.7689 12.3175C13.1525 11.4598 13.2526 10.516 13.0565 9.60562C12.8603 8.69523 12.3768 7.85907 11.6669 7.20286C10.9571 6.54664 10.0529 6.09984 9.06857 5.91893C8.08425 5.73803 7.06404 5.83114 6.13693 6.1865C5.20982 6.54187 4.41743 7.14352 3.85994 7.91541C3.30245 8.68729 3.0049 9.59474 3.0049 10.523C3.00528 11.7686 3.54036 12.963 4.49251 13.8438C5.44467 14.7245 6.73595 15.2195 8.0825 15.2198V15.2171ZM11.7455 24.068C9.44509 22.8852 9.23413 19.3579 11.0866 15.5753C10.171 16.0563 9.13685 16.3109 8.08394 16.3145C6.70256 16.3145 5.43677 15.8868 4.39929 15.1837C3.51063 15.8681 2.62487 16.8491 1.89661 18.0614C0.21034 20.8736 0.0253848 23.7579 1.48191 24.5038C2.13214 24.8486 2.8185 24.5906 3.52508 23.9611C3.39652 24.6399 3.33126 25.3277 3.33001 26.0168C3.33001 29.2406 4.68105 31.8443 6.3471 31.8443C7.3499 31.8443 7.84986 30.8953 8.08683 29.4451C8.32525 30.8887 8.82376 31.8457 9.82078 31.8457C11.4782 31.8457 12.8408 29.2393 12.8408 26.0181C12.8408 25.4394 12.783 24.8927 12.7006 24.3688C12.366 24.3205 12.0432 24.2183 11.7469 24.0667L11.7455 24.068Z" fill="#0093CB"/>
</svg>
