<svg width="22" height="22" viewBox="0 0 22 22" fill="none" xmlns="http://www.w3.org/2000/svg">
<path d="M10.3757 17.417L18.0799 9.71288C16.7838 9.17145 15.6067 8.38079 14.6153 7.3858C13.6198 6.39418 12.8288 5.21668 12.2872 3.92017L4.583 11.6243C3.98196 12.2254 3.68092 12.5264 3.42259 12.8577C3.11779 13.2488 2.8562 13.6717 2.64238 14.1191C2.46217 14.4983 2.32779 14.9025 2.05904 15.7087L0.640295 19.9618C0.574997 20.1566 0.565309 20.3657 0.61232 20.5656C0.659331 20.7655 0.761177 20.9484 0.906411 21.0936C1.05164 21.2389 1.23451 21.3407 1.43445 21.3877C1.63439 21.4347 1.84348 21.4251 2.03821 21.3598L6.29134 19.941C7.09863 19.6723 7.50175 19.5379 7.88092 19.3577C8.33023 19.1438 8.75071 18.8837 9.14238 18.5775C9.47363 18.3191 9.77467 18.0181 10.3757 17.417ZM20.2174 7.57538C20.9855 6.80722 21.4171 5.76537 21.4171 4.67903C21.4171 3.59268 20.9855 2.55083 20.2174 1.78267C19.4492 1.01451 18.4074 0.582962 17.321 0.582962C16.2347 0.582962 15.1928 1.01451 14.4247 1.78267L13.5007 2.70663L13.5403 2.82225C13.9955 4.12515 14.7406 5.30766 15.7195 6.28059C16.7215 7.28873 17.9454 8.04855 19.2934 8.49934L20.2174 7.57538Z" fill="#3D3D3D"/>
</svg>
