<svg width="25" height="26" viewBox="0 0 25 26" fill="none" xmlns="http://www.w3.org/2000/svg">
<path d="M14.5139 1.19677C13.9503 0.746792 13.237 0.5 12.5 0.5C11.763 0.5 11.0497 0.746792 10.4861 1.19677L1.11111 8.69038C0.763138 8.96822 0.483415 9.31471 0.291497 9.70563C0.0995777 10.0965 9.40677e-05 10.5225 0 10.9536V23.1973C0 24.4684 1.08889 25.5 2.43056 25.5H6.59722C7.24185 25.5 7.86007 25.2574 8.31588 24.8256C8.7717 24.3937 9.02778 23.808 9.02778 23.1973V17.9301C9.02778 17.0353 9.78055 16.309 10.7181 16.2853H14.2819C14.7344 16.2966 15.1643 16.4749 15.48 16.7821C15.7958 17.0894 15.9724 17.5013 15.9722 17.9301V23.1973C15.9722 24.4684 17.0611 25.5 18.4028 25.5H22.5694C23.2141 25.5 23.8323 25.2574 24.2881 24.8256C24.7439 24.3937 25 23.808 25 23.1973V10.9523C24.9999 10.5211 24.9004 10.0952 24.7085 9.70431C24.5166 9.31339 24.2369 8.9669 23.8889 8.68906L14.5139 1.19677Z" fill="#6DD7FD"/>
</svg>
