<svg width="31" height="30" viewBox="0 0 31 30" fill="none" xmlns="http://www.w3.org/2000/svg">
<path d="M17.9167 0.836128C17.2404 0.29615 16.3844 0 15.5 0C14.6156 0 13.7596 0.29615 13.0833 0.836128L1.83333 9.82845C1.41577 10.1619 1.0801 10.5777 0.849796 11.0468C0.619493 11.5159 0.500113 12.0269 0.5 12.5443V27.2368C0.5 28.7621 1.80667 30 3.41667 30H8.41667C9.19021 30 9.93208 29.7089 10.4791 29.1907C11.026 28.6725 11.3333 27.9696 11.3333 27.2368V20.9161C11.3333 19.8424 12.2367 18.9708 13.3617 18.9424H17.6383C18.1813 18.9559 18.6972 19.1699 19.076 19.5386C19.4549 19.9072 19.6669 20.4015 19.6667 20.9161V27.2368C19.6667 28.7621 20.9733 30 22.5833 30H27.5833C28.3569 30 29.0987 29.7089 29.6457 29.1907C30.1927 28.6725 30.5 27.9696 30.5 27.2368V12.5427C30.4999 12.0254 30.3805 11.5143 30.1502 11.0452C29.9199 10.5761 29.5842 10.1603 29.1667 9.82688L17.9167 0.836128Z" fill="#0093CB"/>
</svg>
