<svg width="25" height="26" viewBox="0 0 25 26" fill="none" xmlns="http://www.w3.org/2000/svg">
<path fill-rule="evenodd" clip-rule="evenodd" d="M4.16667 0.5C3.0616 0.5 2.00179 0.938987 1.22039 1.72039C0.438987 2.50179 0 3.5616 0 4.66667V21.3333C0 22.4384 0.438987 23.4982 1.22039 24.2796C2.00179 25.061 3.0616 25.5 4.16667 25.5H20.8333C21.9384 25.5 22.9982 25.061 23.7796 24.2796C24.561 23.4982 25 22.4384 25 21.3333V4.66667C25 3.5616 24.561 2.50179 23.7796 1.72039C22.9982 0.938987 21.9384 0.5 20.8333 0.5H4.16667ZM9.72222 7.44444C9.72222 7.07609 9.86855 6.72282 10.129 6.46235C10.3895 6.20188 10.7428 6.05556 11.1111 6.05556H19.4444C19.8128 6.05556 20.1661 6.20188 20.4265 6.46235C20.687 6.72282 20.8333 7.07609 20.8333 7.44444C20.8333 7.8128 20.687 8.16607 20.4265 8.42654C20.1661 8.687 19.8128 8.83333 19.4444 8.83333H11.1111C10.7428 8.83333 10.3895 8.687 10.129 8.42654C9.86855 8.16607 9.72222 7.8128 9.72222 7.44444ZM9.72222 13C9.72222 12.6316 9.86855 12.2784 10.129 12.0179C10.3895 11.7574 10.7428 11.6111 11.1111 11.6111H19.4444C19.8128 11.6111 20.1661 11.7574 20.4265 12.0179C20.687 12.2784 20.8333 12.6316 20.8333 13C20.8333 13.3684 20.687 13.7216 20.4265 13.9821C20.1661 14.2426 19.8128 14.3889 19.4444 14.3889H11.1111C10.7428 14.3889 10.3895 14.2426 10.129 13.9821C9.86855 13.7216 9.72222 13.3684 9.72222 13ZM9.72222 18.5556C9.72222 18.1872 9.86855 17.8339 10.129 17.5735C10.3895 17.313 10.7428 17.1667 11.1111 17.1667H19.4444C19.8128 17.1667 20.1661 17.313 20.4265 17.5735C20.687 17.8339 20.8333 18.1872 20.8333 18.5556C20.8333 18.9239 20.687 19.2772 20.4265 19.5376C20.1661 19.7981 19.8128 19.9444 19.4444 19.9444H11.1111C10.7428 19.9444 10.3895 19.7981 10.129 19.5376C9.86855 19.2772 9.72222 18.9239 9.72222 18.5556ZM5.55556 6.05556C5.1872 6.05556 4.83393 6.20188 4.57346 6.46235C4.313 6.72282 4.16667 7.07609 4.16667 7.44444C4.16667 7.8128 4.313 8.16607 4.57346 8.42654C4.83393 8.687 5.1872 8.83333 5.55556 8.83333C5.92391 8.83333 6.27857 8.687 6.53904 8.42654C6.7995 8.16607 6.94583 7.8128 6.94583 7.44444C6.94583 7.07609 6.7995 6.72282 6.53904 6.46235C6.27857 6.20188 5.92391 6.05556 5.55556 6.05556ZM4.16667 13C4.16667 12.6316 4.313 12.2784 4.57346 12.0179C4.83393 11.7574 5.1872 11.6111 5.55556 11.6111C5.92391 11.6111 6.27857 11.7574 6.53904 12.0179C6.7995 12.2784 6.94583 12.6316 6.94583 13C6.94583 13.3684 6.7995 13.7216 6.53904 13.9821C6.27857 14.2426 5.9253 14.3889 5.55694 14.3889C5.18859 14.3889 4.83393 14.2426 4.57346 13.9821C4.313 13.7216 4.16667 13.3684 4.16667 13ZM5.55556 17.1667C5.1872 17.1667 4.83393 17.313 4.57346 17.5735C4.313 17.8339 4.16667 18.1872 4.16667 18.5556C4.16667 18.9239 4.313 19.2772 4.57346 19.5376C4.83393 19.7981 5.1872 19.9444 5.55556 19.9444C5.92391 19.9444 6.27857 19.7981 6.53904 19.5376C6.7995 19.2772 6.94583 18.9239 6.94583 18.5556C6.94583 18.1872 6.7995 17.8339 6.53904 17.5735C6.27857 17.313 5.92391 17.1667 5.55556 17.1667Z" fill="#6DD7FD"/>
</svg>
