<svg width="36" height="36" viewBox="0 0 36 36" fill="none" xmlns="http://www.w3.org/2000/svg">
<path fill-rule="evenodd" clip-rule="evenodd" d="M6.33333 0.5C4.78624 0.5 3.30251 1.11458 2.20854 2.20854C1.11458 3.30251 0.5 4.78624 0.5 6.33333V29.6667C0.5 31.2138 1.11458 32.6975 2.20854 33.7915C3.30251 34.8854 4.78624 35.5 6.33333 35.5H29.6667C31.2138 35.5 32.6975 34.8854 33.7915 33.7915C34.8854 32.6975 35.5 31.2138 35.5 29.6667V6.33333C35.5 4.78624 34.8854 3.30251 33.7915 2.20854C32.6975 1.11458 31.2138 0.5 29.6667 0.5H6.33333ZM14.1111 10.2222C14.1111 9.70652 14.316 9.21195 14.6806 8.84729C15.0453 8.48264 15.5399 8.27778 16.0556 8.27778H27.7222C28.2379 8.27778 28.7325 8.48264 29.0972 8.84729C29.4618 9.21195 29.6667 9.70652 29.6667 10.2222C29.6667 10.7379 29.4618 11.2325 29.0972 11.5972C28.7325 11.9618 28.2379 12.1667 27.7222 12.1667H16.0556C15.5399 12.1667 15.0453 11.9618 14.6806 11.5972C14.316 11.2325 14.1111 10.7379 14.1111 10.2222ZM14.1111 18C14.1111 17.4843 14.316 16.9897 14.6806 16.6251C15.0453 16.2604 15.5399 16.0556 16.0556 16.0556H27.7222C28.2379 16.0556 28.7325 16.2604 29.0972 16.6251C29.4618 16.9897 29.6667 17.4843 29.6667 18C29.6667 18.5157 29.4618 19.0103 29.0972 19.3749C28.7325 19.7396 28.2379 19.9444 27.7222 19.9444H16.0556C15.5399 19.9444 15.0453 19.7396 14.6806 19.3749C14.316 19.0103 14.1111 18.5157 14.1111 18ZM14.1111 25.7778C14.1111 25.2621 14.316 24.7675 14.6806 24.4028C15.0453 24.0382 15.5399 23.8333 16.0556 23.8333H27.7222C28.2379 23.8333 28.7325 24.0382 29.0972 24.4028C29.4618 24.7675 29.6667 25.2621 29.6667 25.7778C29.6667 26.2935 29.4618 26.7881 29.0972 27.1527C28.7325 27.5174 28.2379 27.7222 27.7222 27.7222H16.0556C15.5399 27.7222 15.0453 27.5174 14.6806 27.1527C14.316 26.7881 14.1111 26.2935 14.1111 25.7778ZM8.27778 8.27778C7.76208 8.27778 7.2675 8.48264 6.90285 8.84729C6.53819 9.21195 6.33333 9.70652 6.33333 10.2222C6.33333 10.7379 6.53819 11.2325 6.90285 11.5972C7.2675 11.9618 7.76208 12.1667 8.27778 12.1667C8.79348 12.1667 9.29 11.9618 9.65465 11.5972C10.0193 11.2325 10.2242 10.7379 10.2242 10.2222C10.2242 9.70652 10.0193 9.21195 9.65465 8.84729C9.29 8.48264 8.79348 8.27778 8.27778 8.27778ZM6.33333 18C6.33333 17.4843 6.53819 16.9897 6.90285 16.6251C7.2675 16.2604 7.76208 16.0556 8.27778 16.0556C8.79348 16.0556 9.29 16.2604 9.65465 16.6251C10.0193 16.9897 10.2242 17.4843 10.2242 18C10.2242 18.5157 10.0193 19.0103 9.65465 19.3749C9.29 19.7396 8.79542 19.9444 8.27972 19.9444C7.76402 19.9444 7.2675 19.7396 6.90285 19.3749C6.53819 19.0103 6.33333 18.5157 6.33333 18ZM8.27778 23.8333C7.76208 23.8333 7.2675 24.0382 6.90285 24.4028C6.53819 24.7675 6.33333 25.2621 6.33333 25.7778C6.33333 26.2935 6.53819 26.7881 6.90285 27.1527C7.2675 27.5174 7.76208 27.7222 8.27778 27.7222C8.79348 27.7222 9.29 27.5174 9.65465 27.1527C10.0193 26.7881 10.2242 26.2935 10.2242 25.7778C10.2242 25.2621 10.0193 24.7675 9.65465 24.4028C9.29 24.0382 8.79348 23.8333 8.27778 23.8333Z" fill="#0093CB"/>
</svg>
