<svg width="50" height="54" viewBox="0 0 50 54" fill="none" xmlns="http://www.w3.org/2000/svg">
<path d="M38.945 7.06636L33.945 4.30073C29.555 1.87489 27.36 0.660645 25 0.660645C22.64 0.660645 20.445 1.87225 16.055 4.30073L15.2525 4.74587L37.56 18.1763L47.6 12.8821C45.985 10.954 43.38 9.51328 38.945 7.06109M49.37 16.3694L39.375 21.6373V29.6339C39.375 30.1578 39.1775 30.6602 38.8258 31.0307C38.4742 31.4012 37.9973 31.6093 37.5 31.6093C37.0027 31.6093 36.5258 31.4012 36.1742 31.0307C35.8225 30.6602 35.625 30.1578 35.625 29.6339V23.6127L26.875 28.2221V53.0864C28.67 52.6149 30.7125 51.4876 33.945 49.6991L38.945 46.9335C44.3225 43.9598 47.0125 42.4743 48.5075 39.8008C50 37.13 50 33.8034 50 27.158V26.8498C50 21.8638 50 18.7452 49.37 16.3694ZM23.125 53.0864V28.2221L0.63 16.3694C2.38419e-07 18.7452 0 21.8638 0 26.8445V27.1527C0 33.8034 -3.57628e-07 37.13 1.4925 39.8008C2.9875 42.4743 5.6775 43.9624 11.055 46.9361L16.055 49.6991C19.2875 51.4876 21.33 52.6149 23.125 53.0864ZM2.4 12.8847L25 24.7901L33.5275 20.2992L11.3125 6.92413L11.055 7.06636C6.6225 9.51591 4.015 10.9567 2.4 12.8873" fill="#6DD7FD"/>
</svg>
