<svg width="26" height="26" viewBox="0 0 26 26" fill="none" xmlns="http://www.w3.org/2000/svg">
<path d="M4.5 0.5C2.29086 0.5 0.5 2.29086 0.5 4.5V7.90026C0.5 10.0232 2.15845 11.7763 4.27812 11.8941L8.12022 12.1076C10.413 12.2349 12.3421 10.4101 12.3421 8.11371V4.5C12.3421 2.29086 10.5512 0.5 8.3421 0.5H4.5ZM17.6579 0.5C15.4488 0.5 13.6579 2.29086 13.6579 4.5V8.11371C13.6579 10.4101 15.587 12.2349 17.8798 12.1076L21.7219 11.8941C23.8415 11.7763 25.5 10.0232 25.5 7.90026V4.5C25.5 2.29086 23.7091 0.5 21.5 0.5H17.6579ZM4.27813 14.1059C2.15846 14.2237 0.5 15.9768 0.5 18.0997V21.5C0.5 23.7091 2.29086 25.5 4.5 25.5H7.90026C10.0232 25.5 11.7763 23.8415 11.8941 21.7219L12.0941 18.1216C12.2264 15.7407 10.2593 13.7736 7.8784 13.9059L4.27813 14.1059ZM18.1216 13.9059C15.7407 13.7736 13.7736 15.7407 13.9059 18.1216L14.1059 21.7219C14.2237 23.8415 15.9768 25.5 18.0997 25.5H21.5C23.7091 25.5 25.5 23.7091 25.5 21.5V18.0997C25.5 15.9768 23.8415 14.2237 21.7219 14.1059L18.1216 13.9059Z" fill="#6DD7FD"/>
</svg>
