<svg width="31" height="30" viewBox="0 0 31 30" fill="none" xmlns="http://www.w3.org/2000/svg">
<path d="M4.5 0C2.29086 0 0.5 1.79086 0.5 4V9.63711C0.5 11.76 2.15845 13.5132 4.27812 13.6309L10.4887 13.976C12.7815 14.1034 14.7105 12.2785 14.7105 9.98214V4C14.7105 1.79086 12.9197 0 10.7105 0H4.5ZM20.2895 0C18.0803 0 16.2895 1.79086 16.2895 4V9.98214C16.2895 12.2785 18.2185 14.1034 20.5114 13.976L26.7219 13.6309C28.8416 13.5132 30.5 11.76 30.5 9.63711V4C30.5 1.79086 28.7091 0 26.5 0H20.2895ZM4.27812 16.3691C2.15845 16.4868 0.5 18.24 0.5 20.3629V26C0.5 28.2091 2.29086 30 4.5 30H10.1371C12.26 30 14.0132 28.3415 14.1309 26.2219L14.4625 20.2532C14.5948 17.8723 12.6277 15.9052 10.2468 16.0375L4.27812 16.3691ZM20.7532 16.0375C18.3723 15.9052 16.4052 17.8723 16.5375 20.2532L16.8691 26.2219C16.9868 28.3416 18.74 30 20.8629 30H26.5C28.7091 30 30.5 28.2091 30.5 26V20.3629C30.5 18.24 28.8415 16.4868 26.7219 16.3691L20.7532 16.0375Z" fill="#0093CB"/>
</svg>
