<svg width="36" height="36" viewBox="0 0 36 36" fill="none" xmlns="http://www.w3.org/2000/svg">
<path d="M28.0404 4.46403L24.4404 2.57403C21.2796 0.916226 19.6992 0.0864258 18 0.0864258C16.3008 0.0864258 14.7204 0.914426 11.5596 2.57403L10.9818 2.87823L27.0432 12.0564L34.272 8.43843C33.1092 7.12083 31.2336 6.13623 28.0404 4.46043M35.5464 10.8216L28.35 14.4216V19.8864C28.35 20.2445 28.2078 20.5878 27.9546 20.841C27.7014 21.0942 27.358 21.2364 27 21.2364C26.642 21.2364 26.2986 21.0942 26.0454 20.841C25.7922 20.5878 25.65 20.2445 25.65 19.8864V15.7716L19.35 18.9216V35.9136C20.6424 35.5914 22.113 34.821 24.4404 33.5988L28.0404 31.7088C31.9122 29.6766 33.849 28.6614 34.9254 26.8344C36 25.0092 36 22.7358 36 18.1944V17.9838C36 14.5764 36 12.4452 35.5464 10.8216ZM16.65 35.9136V18.9216L0.4536 10.8216C1.60933e-07 12.4452 0 14.5764 0 17.9802V18.1908C0 22.7358 -2.14577e-07 25.0092 1.0746 26.8344C2.151 28.6614 4.0878 29.6784 7.9596 31.7106L11.5596 33.5988C13.887 34.821 15.3576 35.5914 16.65 35.9136ZM1.728 8.44023L18 16.5762L24.1398 13.5072L8.145 4.36683L7.9596 4.46403C4.7682 6.13803 2.8908 7.12263 1.728 8.44203" fill="#0093CB"/>
</svg>
