<svg width="28" height="28" viewBox="0 0 28 28" fill="none" xmlns="http://www.w3.org/2000/svg">
<path d="M21.8092 3.47194L19.0092 2.00194C16.5508 0.712539 15.3216 0.0671387 14 0.0671387C12.6784 0.0671387 11.4492 0.711139 8.9908 2.00194L8.5414 2.23854L21.0336 9.37714L26.656 6.56314C25.7516 5.53834 24.2928 4.77254 21.8092 3.46914M27.6472 8.41674L22.05 11.2167V15.4671C22.05 15.7456 21.9394 16.0127 21.7425 16.2096C21.5455 16.4065 21.2785 16.5171 21 16.5171C20.7215 16.5171 20.4545 16.4065 20.2575 16.2096C20.0606 16.0127 19.95 15.7456 19.95 15.4671V12.2667L15.05 14.7167V27.9327C16.0552 27.6821 17.199 27.0829 19.0092 26.1323L21.8092 24.6623C24.8206 23.0817 26.327 22.2921 27.1642 20.8711C28 19.4515 28 17.6833 28 14.1511V13.9873C28 11.3371 28 9.67954 27.6472 8.41674ZM12.95 27.9327V14.7167L0.3528 8.41674C1.2517e-07 9.67954 0 11.3371 0 13.9845V14.1483C0 17.6833 -1.66893e-07 19.4515 0.8358 20.8711C1.673 22.2921 3.1794 23.0831 6.1908 24.6637L8.9908 26.1323C10.801 27.0829 11.9448 27.6821 12.95 27.9327ZM1.344 6.56454L14 12.8925L18.7754 10.5055L6.335 3.39634L6.1908 3.47194C3.7086 4.77394 2.2484 5.53974 1.344 6.56594" fill="#6DD7FD"/>
</svg>
