<svg width="29" height="28" viewBox="0 0 29 28" fill="none" xmlns="http://www.w3.org/2000/svg">
<path d="M16.7684 3.39171L19.1578 7.79171C19.4836 8.40421 20.3525 8.99171 21.0856 9.10421L25.4162 9.76671C28.1857 10.1917 28.8373 12.0417 26.8417 13.8667L23.4749 16.9667C22.9047 17.4917 22.5925 18.5042 22.769 19.2292L23.7328 23.0667C24.4931 26.1042 22.7418 27.2792 19.823 25.6917L15.7638 23.4792C15.0307 23.0792 13.8225 23.0792 13.0758 23.4792L9.01665 25.6917C6.11143 27.2792 4.34657 26.0917 5.10682 23.0667L6.0707 19.2292C6.24719 18.5042 5.93494 17.4917 5.36476 16.9667L1.99795 13.8667C0.0158846 12.0417 0.653949 10.1917 3.42342 9.76671L7.7541 9.10421C8.47362 8.99171 9.34247 8.40421 9.66829 7.79171L12.0576 3.39171C13.3609 1.00421 15.4787 1.00421 16.7684 3.39171Z" stroke="#858390" stroke-width="1.5" stroke-linecap="round" stroke-linejoin="round"/>
</svg>
